{
    "asset" : {
        "generator" : "Khronos glTF Blender I/O v1.5.17",
        "version" : "2.0"
    },
    "scene" : 0,
    "scenes" : [
        {
            "name" : "Scene",
            "nodes" : [
                0,
                1,
                2,
                3
            ]
        }
    ],
    "nodes" : [
        {
            "mesh" : 0,
            "name" : "BirdWings",
            "rotation" : [
                0.7071068286895752,
                0,
                0,
                0.7071068286895752
            ],
            "scale" : [
                0.20000000298023224,
                0.20000000298023224,
                0.20000000298023224
            ],
            "translation" : [
                -0.1487947404384613,
                0.47843724489212036,
                0
            ]
        },
        {
            "mesh" : 1,
            "name" : "BirdBody",
            "rotation" : [
                0.7071068286895752,
                0,
                0,
                0.7071068286895752
            ],
            "scale" : [
                0.20000000298023224,
                0.20000000298023224,
                0.20000000298023224
            ],
            "translation" : [
                0.1662428379058838,
                0.5482337474822998,
                0
            ]
        },
        {
            "mesh" : 2,
            "name" : "BirdEyes",
            "scale" : [
                0.20000000298023224,
                0.20000000298023224,
                0.20000000298023224
            ],
            "translation" : [
                -0.004910110495984554,
                -0.0013822466135025024,
                0
            ]
        },
        {
            "mesh" : 3,
            "name" : "WoodenBox",
            "scale" : [
                0.20000000298023224,
                0.20000000298023224,
                0.20000000298023224
            ]
        }
    ],
    "materials" : [
        {
            "doubleSided" : true,
            "name" : "WingGreenMaterial",
            "pbrMetallicRoughness" : {
                "baseColorFactor" : [
                    0.5711248517036438,
                    0.8148465752601624,
                    0.16826938092708588,
                    1
                ],
                "metallicFactor" : 0,
                "roughnessFactor" : 0.5
            }
        },
        {
            "doubleSided" : true,
            "name" : "WingYellowMaterial",
            "pbrMetallicRoughness" : {
                "baseColorFactor" : [
                    0.9911022186279297,
                    0.6375969052314758,
                    0.02955683320760727,
                    1
                ],
                "metallicFactor" : 0,
                "roughnessFactor" : 0.5
            }
        },
        {
            "doubleSided" : true,
            "name" : "WingBlueMaterial",
            "pbrMetallicRoughness" : {
                "baseColorFactor" : [
                    0.3277781009674072,
                    0.5520113706588745,
                    0.9559733867645264,
                    1
                ],
                "metallicFactor" : 0,
                "roughnessFactor" : 0.5
            }
        },
        {
            "doubleSided" : true,
            "name" : "BodyMaterial",
            "pbrMetallicRoughness" : {
                "baseColorFactor" : [
                    0.9999855756759644,
                    0.17006096243858337,
                    0.22636598348617554,
                    1
                ],
                "metallicFactor" : 0,
                "roughnessFactor" : 0.5
            }
        },
        {
            "doubleSided" : true,
            "name" : "MouthMaterial",
            "pbrMetallicRoughness" : {
                "baseColorFactor" : [
                    0.9822506308555603,
                    0.6375969052314758,
                    0.03688944876194,
                    1
                ],
                "metallicFactor" : 0,
                "roughnessFactor" : 0.5
            }
        },
        {
            "doubleSided" : true,
            "name" : "EyeHolderMaterial",
            "pbrMetallicRoughness" : {
                "baseColorFactor" : [
                    0.800000011920929,
                    0.800000011920929,
                    0.800000011920929,
                    1
                ],
                "metallicFactor" : 0,
                "roughnessFactor" : 0.5
            }
        },
        {
            "doubleSided" : true,
            "name" : "EyeMaterial",
            "pbrMetallicRoughness" : {
                "baseColorFactor" : [
                    0.016721881926059723,
                    0.010260739363729954,
                    0.10656200349330902,
                    1
                ],
                "metallicFactor" : 0,
                "roughnessFactor" : 0.5
            }
        },
        {
            "doubleSided" : true,
            "name" : "BoxMaterial",
            "pbrMetallicRoughness" : {
                "baseColorTexture" : {
                    "index" : 0
                },
                "metallicFactor" : 0,
                "roughnessFactor" : 0.5
            }
        }
    ],
    "meshes" : [
        {
            "name" : "Plane.001",
            "primitives" : [
                {
                    "attributes" : {
                        "POSITION" : 0,
                        "NORMAL" : 1,
                        "TEXCOORD_0" : 2
                    },
                    "indices" : 3,
                    "material" : 0
                },
                {
                    "attributes" : {
                        "POSITION" : 4,
                        "NORMAL" : 5,
                        "TEXCOORD_0" : 6
                    },
                    "indices" : 7,
                    "material" : 1
                },
                {
                    "attributes" : {
                        "POSITION" : 8,
                        "NORMAL" : 9,
                        "TEXCOORD_0" : 10
                    },
                    "indices" : 11,
                    "material" : 2
                }
            ]
        },
        {
            "name" : "Plane.002",
            "primitives" : [
                {
                    "attributes" : {
                        "POSITION" : 12,
                        "NORMAL" : 13,
                        "TEXCOORD_0" : 14
                    },
                    "indices" : 15,
                    "material" : 3
                },
                {
                    "attributes" : {
                        "POSITION" : 16,
                        "NORMAL" : 17,
                        "TEXCOORD_0" : 18
                    },
                    "indices" : 19,
                    "material" : 4
                },
                {
                    "attributes" : {
                        "POSITION" : 20,
                        "NORMAL" : 21,
                        "TEXCOORD_0" : 22
                    },
                    "indices" : 23,
                    "material" : 5
                }
            ]
        },
        {
            "name" : "Cube.001",
            "primitives" : [
                {
                    "attributes" : {
                        "POSITION" : 24,
                        "NORMAL" : 25,
                        "TEXCOORD_0" : 26
                    },
                    "indices" : 27,
                    "material" : 6
                }
            ]
        },
        {
            "name" : "Cube.002",
            "primitives" : [
                {
                    "attributes" : {
                        "POSITION" : 28,
                        "NORMAL" : 29,
                        "TEXCOORD_0" : 30
                    },
                    "indices" : 31,
                    "material" : 7
                }
            ]
        }
    ],
    "textures" : [
        {
            "sampler" : 0,
            "source" : 0
        }
    ],
    "images" : [
        {
            "bufferView" : 32,
            "mimeType" : "image/jpeg",
            "name" : "wood_texture"
        }
    ],
    "accessors" : [
        {
            "bufferView" : 0,
            "componentType" : 5126,
            "count" : 40,
            "max" : [
                1.0296838283538818,
                0.5864177346229553,
                -0.11313702911138535
            ],
            "min" : [
                -0.2579084634780884,
                -0.5864177346229553,
                -1.000000238418579
            ],
            "type" : "VEC3"
        },
        {
            "bufferView" : 1,
            "componentType" : 5126,
            "count" : 40,
            "type" : "VEC3"
        },
        {
            "bufferView" : 2,
            "componentType" : 5126,
            "count" : 40,
            "type" : "VEC2"
        },
        {
            "bufferView" : 3,
            "componentType" : 5123,
            "count" : 60,
            "type" : "SCALAR"
        },
        {
            "bufferView" : 4,
            "componentType" : 5126,
            "count" : 72,
            "max" : [
                1.0296838283538818,
                0.5864177346229553,
                1.4600965976715088
            ],
            "min" : [
                -1.6827242374420166,
                -0.5864177346229553,
                -0.3209228515625
            ],
            "type" : "VEC3"
        },
        {
            "bufferView" : 5,
            "componentType" : 5126,
            "count" : 72,
            "type" : "VEC3"
        },
        {
            "bufferView" : 6,
            "componentType" : 5126,
            "count" : 72,
            "type" : "VEC2"
        },
        {
            "bufferView" : 7,
            "componentType" : 5123,
            "count" : 108,
            "type" : "SCALAR"
        },
        {
            "bufferView" : 8,
            "componentType" : 5126,
            "count" : 32,
            "max" : [
                1.0148420333862305,
                0.5864176750183105,
                1.4007292985916138
            ],
            "min" : [
                -0.6141124367713928,
                -0.5864176750183105,
                0.525061309337616
            ],
            "type" : "VEC3"
        },
        {
            "bufferView" : 9,
            "componentType" : 5126,
            "count" : 32,
            "type" : "VEC3"
        },
        {
            "bufferView" : 10,
            "componentType" : 5126,
            "count" : 32,
            "type" : "VEC2"
        },
        {
            "bufferView" : 11,
            "componentType" : 5123,
            "count" : 48,
            "type" : "SCALAR"
        },
        {
            "bufferView" : 12,
            "componentType" : 5126,
            "count" : 168,
            "max" : [
                0.8533363342285156,
                0.4000004529953003,
                1.7822060585021973
            ],
            "min" : [
                -2.7762598991394043,
                -0.4000004529953003,
                -2.295529365539551
            ],
            "type" : "VEC3"
        },
        {
            "bufferView" : 13,
            "componentType" : 5126,
            "count" : 168,
            "type" : "VEC3"
        },
        {
            "bufferView" : 14,
            "componentType" : 5126,
            "count" : 168,
            "type" : "VEC2"
        },
        {
            "bufferView" : 15,
            "componentType" : 5123,
            "count" : 270,
            "type" : "SCALAR"
        },
        {
            "bufferView" : 16,
            "componentType" : 5126,
            "count" : 64,
            "max" : [
                1.6214481592178345,
                0.4000004529953003,
                -0.7392647862434387
            ],
            "min" : [
                0.27656328678131104,
                -0.4000004529953003,
                -1.9655359983444214
            ],
            "type" : "VEC3"
        },
        {
            "bufferView" : 17,
            "componentType" : 5126,
            "count" : 64,
            "type" : "VEC3"
        },
        {
            "bufferView" : 18,
            "componentType" : 5126,
            "count" : 64,
            "type" : "VEC2"
        },
        {
            "bufferView" : 19,
            "componentType" : 5123,
            "count" : 96,
            "type" : "SCALAR"
        },
        {
            "bufferView" : 20,
            "componentType" : 5126,
            "count" : 12,
            "max" : [
                0.3091551661491394,
                0.4000004529953003,
                -0.7413020133972168
            ],
            "min" : [
                -0.5957387685775757,
                -0.4000004529953003,
                -1.9645174741744995
            ],
            "type" : "VEC3"
        },
        {
            "bufferView" : 21,
            "componentType" : 5126,
            "count" : 12,
            "type" : "VEC3"
        },
        {
            "bufferView" : 22,
            "componentType" : 5126,
            "count" : 12,
            "type" : "VEC2"
        },
        {
            "bufferView" : 23,
            "componentType" : 5123,
            "count" : 24,
            "type" : "SCALAR"
        },
        {
            "bufferView" : 24,
            "componentType" : 5126,
            "count" : 48,
            "max" : [
                0.8089991211891174,
                4.378044128417969,
                0.5203902721405029
            ],
            "min" : [
                0.4706043004989624,
                4.03964900970459,
                -0.5203902721405029
            ],
            "type" : "VEC3"
        },
        {
            "bufferView" : 25,
            "componentType" : 5126,
            "count" : 48,
            "type" : "VEC3"
        },
        {
            "bufferView" : 26,
            "componentType" : 5126,
            "count" : 48,
            "type" : "VEC2"
        },
        {
            "bufferView" : 27,
            "componentType" : 5123,
            "count" : 72,
            "type" : "SCALAR"
        },
        {
            "bufferView" : 28,
            "componentType" : 5126,
            "count" : 24,
            "max" : [
                1,
                1,
                1
            ],
            "min" : [
                -1,
                -1,
                -1
            ],
            "type" : "VEC3"
        },
        {
            "bufferView" : 29,
            "componentType" : 5126,
            "count" : 24,
            "type" : "VEC3"
        },
        {
            "bufferView" : 30,
            "componentType" : 5126,
            "count" : 24,
            "type" : "VEC2"
        },
        {
            "bufferView" : 31,
            "componentType" : 5123,
            "count" : 36,
            "type" : "SCALAR"
        }
    ],
    "bufferViews" : [
        {
            "buffer" : 0,
            "byteLength" : 480,
            "byteOffset" : 0
        },
        {
            "buffer" : 0,
            "byteLength" : 480,
            "byteOffset" : 480
        },
        {
            "buffer" : 0,
            "byteLength" : 320,
            "byteOffset" : 960
        },
        {
            "buffer" : 0,
            "byteLength" : 120,
            "byteOffset" : 1280
        },
        {
            "buffer" : 0,
            "byteLength" : 864,
            "byteOffset" : 1400
        },
        {
            "buffer" : 0,
            "byteLength" : 864,
            "byteOffset" : 2264
        },
        {
            "buffer" : 0,
            "byteLength" : 576,
            "byteOffset" : 3128
        },
        {
            "buffer" : 0,
            "byteLength" : 216,
            "byteOffset" : 3704
        },
        {
            "buffer" : 0,
            "byteLength" : 384,
            "byteOffset" : 3920
        },
        {
            "buffer" : 0,
            "byteLength" : 384,
            "byteOffset" : 4304
        },
        {
            "buffer" : 0,
            "byteLength" : 256,
            "byteOffset" : 4688
        },
        {
            "buffer" : 0,
            "byteLength" : 96,
            "byteOffset" : 4944
        },
        {
            "buffer" : 0,
            "byteLength" : 2016,
            "byteOffset" : 5040
        },
        {
            "buffer" : 0,
            "byteLength" : 2016,
            "byteOffset" : 7056
        },
        {
            "buffer" : 0,
            "byteLength" : 1344,
            "byteOffset" : 9072
        },
        {
            "buffer" : 0,
            "byteLength" : 540,
            "byteOffset" : 10416
        },
        {
            "buffer" : 0,
            "byteLength" : 768,
            "byteOffset" : 10956
        },
        {
            "buffer" : 0,
            "byteLength" : 768,
            "byteOffset" : 11724
        },
        {
            "buffer" : 0,
            "byteLength" : 512,
            "byteOffset" : 12492
        },
        {
            "buffer" : 0,
            "byteLength" : 192,
            "byteOffset" : 13004
        },
        {
            "buffer" : 0,
            "byteLength" : 144,
            "byteOffset" : 13196
        },
        {
            "buffer" : 0,
            "byteLength" : 144,
            "byteOffset" : 13340
        },
        {
            "buffer" : 0,
            "byteLength" : 96,
            "byteOffset" : 13484
        },
        {
            "buffer" : 0,
            "byteLength" : 48,
            "byteOffset" : 13580
        },
        {
            "buffer" : 0,
            "byteLength" : 576,
            "byteOffset" : 13628
        },
        {
            "buffer" : 0,
            "byteLength" : 576,
            "byteOffset" : 14204
        },
        {
            "buffer" : 0,
            "byteLength" : 384,
            "byteOffset" : 14780
        },
        {
            "buffer" : 0,
            "byteLength" : 144,
            "byteOffset" : 15164
        },
        {
            "buffer" : 0,
            "byteLength" : 288,
            "byteOffset" : 15308
        },
        {
            "buffer" : 0,
            "byteLength" : 288,
            "byteOffset" : 15596
        },
        {
            "buffer" : 0,
            "byteLength" : 192,
            "byteOffset" : 15884
        },
        {
            "buffer" : 0,
            "byteLength" : 72,
            "byteOffset" : 16076
        },
        {
            "buffer" : 0,
            "byteLength" : 227494,
            "byteOffset" : 16148
        }
    ],
    "samplers" : [
        {
            "magFilter" : 9729,
            "minFilter" : 9987
        }
    ],
    "buffers" : [
        {
            "byteLength" : 243644,
            "uri" : "data:application/octet-stream;base64,"
        }
    ]
}
